<mxfile host="app.diagrams.net" agent="Mozilla/5.0 (Windows NT 10.0; Win64; x64; rv:138.0) Gecko/20100101 Firefox/138.0" version="27.0.6">
  <diagram name="Page-1" id="RmtfrUNqZ7K-smlCBy2R">
    <mxGraphModel dx="1425" dy="766" grid="1" gridSize="10" guides="1" tooltips="1" connect="1" arrows="1" fold="1" page="1" pageScale="1" pageWidth="850" pageHeight="1100" math="0" shadow="0">
      <root>
        <mxCell id="0" />
        <mxCell id="1" parent="0" />
        <mxCell id="Ej3PRb3CKJjWQGK5sSww-1" value="Keep Satisfied" style="whiteSpace=wrap;html=1;aspect=fixed;shadow=0;strokeColor=none;fillColor=light-dark(#F39C12,#F39C12);" parent="1" vertex="1">
          <mxGeometry x="202" y="260" width="240" height="240" as="geometry" />
        </mxCell>
        <mxCell id="Ej3PRb3CKJjWQGK5sSww-2" value="&lt;font&gt;Manage Closely&lt;/font&gt;" style="whiteSpace=wrap;html=1;aspect=fixed;shadow=0;strokeColor=none;fillColor=light-dark(#C0392B,#C0392B);" parent="1" vertex="1">
          <mxGeometry x="452" y="260" width="240" height="240" as="geometry" />
        </mxCell>
        <mxCell id="Ej3PRb3CKJjWQGK5sSww-3" value="Keep Informed" style="whiteSpace=wrap;html=1;aspect=fixed;shadow=0;strokeColor=none;fillColor=light-dark(#3498DB,#3498DB);" parent="1" vertex="1">
          <mxGeometry x="452" y="510" width="240" height="240" as="geometry" />
        </mxCell>
        <mxCell id="Ej3PRb3CKJjWQGK5sSww-4" value="Minimal Effort" style="whiteSpace=wrap;html=1;aspect=fixed;shadow=0;strokeColor=none;fillColor=light-dark(#9B59B6,#9B59B6);" parent="1" vertex="1">
          <mxGeometry x="202" y="510" width="240" height="240" as="geometry" />
        </mxCell>
        <mxCell id="Ej3PRb3CKJjWQGK5sSww-5" style="edgeStyle=orthogonalEdgeStyle;rounded=0;orthogonalLoop=1;jettySize=auto;html=1;entryX=0;entryY=0.5;entryDx=0;entryDy=0;shadow=0;endArrow=open;endFill=0;strokeColor=#B3B3B3;strokeWidth=3;fontSize=14;" parent="1" source="Ej3PRb3CKJjWQGK5sSww-7" target="Ej3PRb3CKJjWQGK5sSww-8" edge="1">
          <mxGeometry relative="1" as="geometry" />
        </mxCell>
        <mxCell id="Ej3PRb3CKJjWQGK5sSww-6" value="&amp;nbsp;Interest" style="edgeLabel;html=1;align=center;verticalAlign=middle;resizable=0;points=[];fontSize=16;" parent="Ej3PRb3CKJjWQGK5sSww-5" vertex="1" connectable="0">
          <mxGeometry x="0.0031" relative="1" as="geometry">
            <mxPoint as="offset" />
          </mxGeometry>
        </mxCell>
        <mxCell id="Ej3PRb3CKJjWQGK5sSww-7" value="Low" style="text;html=1;strokeColor=none;fillColor=none;align=center;verticalAlign=middle;whiteSpace=wrap;rounded=0;shadow=0;glass=0;sketch=0;fontSize=14;" parent="1" vertex="1">
          <mxGeometry x="202" y="760" width="40" height="20" as="geometry" />
        </mxCell>
        <mxCell id="Ej3PRb3CKJjWQGK5sSww-8" value="High" style="text;html=1;strokeColor=none;fillColor=none;align=center;verticalAlign=middle;whiteSpace=wrap;rounded=0;shadow=0;glass=0;sketch=0;fontSize=14;" parent="1" vertex="1">
          <mxGeometry x="652" y="760" width="40" height="20" as="geometry" />
        </mxCell>
        <mxCell id="Ej3PRb3CKJjWQGK5sSww-9" style="edgeStyle=orthogonalEdgeStyle;rounded=0;orthogonalLoop=1;jettySize=auto;html=1;shadow=0;endArrow=open;endFill=0;strokeColor=#B3B3B3;strokeWidth=3;fontSize=14;entryX=0.5;entryY=1;entryDx=0;entryDy=0;" parent="1" source="Ej3PRb3CKJjWQGK5sSww-11" target="Ej3PRb3CKJjWQGK5sSww-12" edge="1">
          <mxGeometry relative="1" as="geometry">
            <mxPoint x="179" y="470" as="targetPoint" />
          </mxGeometry>
        </mxCell>
        <mxCell id="Ej3PRb3CKJjWQGK5sSww-10" value="&lt;font style=&quot;font-size: 16px;&quot;&gt;&amp;nbsp;Influence&lt;/font&gt;" style="edgeLabel;html=1;align=center;verticalAlign=middle;resizable=0;points=[];fontSize=12;horizontal=0;" parent="Ej3PRb3CKJjWQGK5sSww-9" vertex="1" connectable="0">
          <mxGeometry x="0.0031" relative="1" as="geometry">
            <mxPoint x="-2" y="5" as="offset" />
          </mxGeometry>
        </mxCell>
        <mxCell id="Ej3PRb3CKJjWQGK5sSww-11" value="Low" style="text;html=1;strokeColor=none;fillColor=none;align=center;verticalAlign=middle;whiteSpace=wrap;rounded=0;shadow=0;glass=0;sketch=0;fontSize=14;" parent="1" vertex="1">
          <mxGeometry x="159" y="730" width="40" height="20" as="geometry" />
        </mxCell>
        <mxCell id="Ej3PRb3CKJjWQGK5sSww-12" value="High" style="text;html=1;strokeColor=none;fillColor=none;align=center;verticalAlign=middle;whiteSpace=wrap;rounded=0;shadow=0;glass=0;sketch=0;fontSize=14;" parent="1" vertex="1">
          <mxGeometry x="159" y="260" width="40" height="20" as="geometry" />
        </mxCell>
        <mxCell id="Ej3PRb3CKJjWQGK5sSww-15" value="" style="shape=image;html=1;verticalAlign=top;verticalLabelPosition=bottom;labelBackgroundColor=#ffffff;imageAspect=0;aspect=fixed;image=https://cdn1.iconfinder.com/data/icons/material-core/21/star-128.png;shadow=0;glass=0;sketch=0;strokeColor=#000000;fontSize=12;" parent="1" vertex="1">
          <mxGeometry x="652" y="270" width="30" height="30" as="geometry" />
        </mxCell>
      </root>
    </mxGraphModel>
  </diagram>
</mxfile>
